<svg width="24" height="25" viewBox="0 0 24 25" fill="none" xmlns="http://www.w3.org/2000/svg">
<path d="M18 6.82422L17.557 5.27522C17.312 4.41622 16.527 3.82422 15.634 3.82422H8.366C7.473 3.82422 6.688 4.41622 6.443 5.27522L6 6.82422" stroke="white" stroke-width="1.5" stroke-linecap="round" stroke-linejoin="round"/>
<path d="M18.417 9.82422L17.209 20.0582C17.09 21.0652 16.236 21.8242 15.222 21.8242H8.77801C7.76401 21.8242 6.91101 21.0652 6.79201 20.0582L5.58301 9.82422" stroke="white" stroke-width="1.5" stroke-linecap="round" stroke-linejoin="round"/>
<path d="M13.4142 14.41C14.1953 15.1911 14.1953 16.4574 13.4142 17.2384C12.6332 18.0195 11.3668 18.0195 10.5858 17.2384C9.80474 16.4574 9.80474 15.1911 10.5858 14.41C11.3668 13.629 12.6332 13.629 13.4142 14.41" stroke="white" stroke-width="1.5" stroke-linecap="round" stroke-linejoin="round"/>
<path fill-rule="evenodd" clip-rule="evenodd" d="M5.3339 6.82422H18.6659C19.0959 6.82422 19.4789 7.09922 19.6149 7.50822L19.9479 8.50822C20.1639 9.15522 19.6819 9.82422 18.9989 9.82422H5.0009C4.3179 9.82422 3.8359 9.15522 4.0519 8.50822L4.3849 7.50822C4.5219 7.09922 4.9039 6.82422 5.3339 6.82422Z" stroke="white" stroke-width="1.5" stroke-linecap="round" stroke-linejoin="round"/>
</svg>