<svg width="24" height="25" viewBox="0 0 24 25" fill="none" xmlns="http://www.w3.org/2000/svg">
<path d="M16.9188 16.7603L17.9761 16.5183C19.7476 16.1129 21.0038 14.5369 21.0038 12.7196V12.7196C21.0038 11.9513 20.6986 11.2146 20.1554 10.6714C19.6122 10.1282 18.8754 9.823 18.1072 9.823H15.5015" stroke="white" stroke-width="1.5" stroke-linecap="round" stroke-linejoin="round"/>
<path fill-rule="evenodd" clip-rule="evenodd" d="M3.99675 9.823H16.0018C16.5543 9.823 17.0022 10.2709 17.0022 10.8234V15.8255C17.0022 19.1406 14.3148 21.828 10.9997 21.828H8.99884C5.68375 21.828 2.99634 19.1406 2.99634 15.8255V10.8234C2.99634 10.2709 3.44424 9.823 3.99675 9.823Z" stroke="white" stroke-width="1.5" stroke-linecap="round" stroke-linejoin="round"/>
<path d="M13.5007 6.82173C13.1858 6.58557 13.0005 6.21493 13.0005 5.82132C13.0005 5.42771 13.1858 5.05707 13.5007 4.8209C13.8156 4.58474 14.0009 4.2141 14.0009 3.82048C14.0009 3.42687 13.8156 3.05623 13.5007 2.82007" stroke="white" stroke-width="1.5" stroke-linecap="round" stroke-linejoin="round"/>
<path d="M9.99923 6.82173C9.68434 6.58557 9.49902 6.21493 9.49902 5.82132C9.49902 5.42771 9.68434 5.05707 9.99923 4.8209C10.3141 4.58474 10.4994 4.2141 10.4994 3.82048C10.4994 3.42687 10.3141 3.05623 9.99923 2.82007" stroke="white" stroke-width="1.5" stroke-linecap="round" stroke-linejoin="round"/>
<path d="M6.49777 6.82173C6.18288 6.58557 5.99756 6.21493 5.99756 5.82132C5.99756 5.42771 6.18288 5.05707 6.49777 4.8209C6.81266 4.58474 6.99798 4.2141 6.99798 3.82048C6.99798 3.42687 6.81266 3.05623 6.49777 2.82007" stroke="white" stroke-width="1.5" stroke-linecap="round" stroke-linejoin="round"/>
<path d="M8.99899 9.823V12.8242" stroke="white" stroke-width="1.5" stroke-linecap="round" stroke-linejoin="round"/>
<rect x="6.99805" y="12.8242" width="4.00167" height="4.00167" rx="1" stroke="white" stroke-width="1.5" stroke-linecap="round" stroke-linejoin="round"/>
</svg>
