<svg width="24" height="25" viewBox="0 0 24 25" fill="none" xmlns="http://www.w3.org/2000/svg">
<path d="M3.24951 12.8049H21.0039" stroke="white" stroke-width="1.5" stroke-linecap="round" stroke-linejoin="round"/>
<path d="M2.99634 17.8264V17.8264C4.14473 17.3262 5.44944 17.3262 6.59784 17.8264V17.8264C7.74623 18.3266 9.05094 18.3266 10.1993 17.8264V17.8264C11.3477 17.3262 12.6524 17.3262 13.8008 17.8264V17.8264C14.9492 18.3266 16.2539 18.3266 17.4023 17.8264V17.8264C18.5507 17.3262 19.8554 17.3262 21.0038 17.8264V17.8264" stroke="white" stroke-width="1.5" stroke-linecap="round" stroke-linejoin="round"/>
<path fill-rule="evenodd" clip-rule="evenodd" d="M3.74726 12.2019L12.4017 5.26253C12.8312 4.92286 13.3786 4.76896 13.9222 4.83509C17.9629 5.30939 21.0076 8.73545 21.0038 12.804V19.8228C21.0051 20.9291 20.1093 21.8269 19.003 21.8282H4.99717C3.89089 21.8269 2.99509 20.9291 2.99634 19.8228V13.7678C2.99634 13.1589 3.27239 12.5829 3.74726 12.2019Z" stroke="white" stroke-width="1.5" stroke-linecap="round" stroke-linejoin="round"/>
</svg>
