<svg width="24" height="25" viewBox="0 0 24 25" fill="none" xmlns="http://www.w3.org/2000/svg">
<path d="M6.72998 14.8242H17.27" stroke="white" stroke-width="1.5" stroke-linecap="round" stroke-linejoin="round"/>
<path fill-rule="evenodd" clip-rule="evenodd" d="M6 10.8242V10.0212C6 9.89022 6.016 9.76022 6.048 9.63322L6.053 9.61122C6.61 7.38522 8.61 5.82422 10.904 5.82422H13.205C15.495 5.82422 17.475 7.41822 17.964 9.65522V9.65522C17.988 9.76722 18 9.88222 18 9.99722V10.8242L16.149 21.0032C16.063 21.4782 15.649 21.8242 15.165 21.8242H8.835C8.352 21.8242 7.938 21.4782 7.851 21.0032L6 10.8242Z" stroke="white" stroke-width="1.5" stroke-linecap="round" stroke-linejoin="round"/>
<path d="M5 10.8242H19" stroke="white" stroke-width="1.5" stroke-linecap="round" stroke-linejoin="round"/>
<path d="M11.9561 14.8243L13.8121 3.66132C13.9111 3.06432 14.5141 2.69132 15.0931 2.86932L18.0001 3.76532" stroke="white" stroke-width="1.5" stroke-linecap="round" stroke-linejoin="round"/>
</svg>
