<svg width="24" height="25" viewBox="0 0 24 25" fill="none" xmlns="http://www.w3.org/2000/svg">
<path fill-rule="evenodd" clip-rule="evenodd" d="M16.0018 7.82227H4.99724C4.71954 7.82227 4.45432 7.9377 4.26508 8.14095C4.07583 8.34419 3.97958 8.61696 3.99937 8.89396L4.79051 19.9698C4.8653 21.0169 5.73654 21.8281 6.78625 21.8281H14.2127C15.2624 21.8281 16.1337 21.0169 16.2085 19.9698L16.9996 8.89396C17.0194 8.61697 16.9232 8.34421 16.7339 8.14097C16.5447 7.93772 16.2795 7.82227 16.0018 7.82227Z" stroke="white" stroke-width="1.5" stroke-linecap="round" stroke-linejoin="round"/>
<path d="M9.9994 13.8247L8.63855 4.67391C8.5658 4.18357 8.14485 3.82056 7.64914 3.82056H4.99731" stroke="white" stroke-width="1.5" stroke-linecap="round" stroke-linejoin="round"/>
<path d="M16.6474 13.8247H4.35156" stroke="white" stroke-width="1.5" stroke-linecap="round" stroke-linejoin="round"/>
<path d="M13.0005 7.82222C13.0005 5.61216 14.7921 3.82056 17.0022 3.82056C19.2122 3.82056 21.0038 5.61216 21.0038 7.82222C21.0038 10.0323 19.2122 11.8239 17.0022 11.8239C16.932 11.8256 16.8618 11.8222 16.7921 11.8139" stroke="white" stroke-width="1.5" stroke-linecap="round" stroke-linejoin="round"/>
</svg>
