<svg xmlns="http://www.w3.org/2000/svg" width="213" height="150" viewBox="0 0 213 150"><g fill="none" fill-rule="evenodd"><path fill="#FFF" fill-rule="nonzero" d="M71.784 142.066s80.194.622 118.792-72.947c0 0-11.573 19.865-40.75 32.89 0 0 23.016-13.156 31.263-35.05 8.248-21.894-13.56-45.294-52.745-48.01-39.217-2.717-70.61 10.8-79.608 15.054 0 0 33.708-23.04 83.715-23.727 39.934-.556 57.147 21.142 57.897 22.516 0 0-14.703-43.723-93.92-24.12-24.742 6.055-50.04 26.05-52.093 27.72 0 0-29.73 16.363-35.86 32.4 0 0 6.814-36.982 67.22-58.385 62.885-22.287 125.932 3.83 134.701 35.868 8.737 31.843-8.802 61.2-55.093 82.308-39.901 18.261-83.52 13.483-83.52 13.483"/><path fill="#FFF" fill-rule="nonzero" d="M18.125 69.675c1.63 1.734 3.75 4.254 5.9 7.003 1.403 1.8 4.14 5.695 4.076 8.28-.098 3.175-1.435 6.938-20.636 10.538l2.576 14.76 1.793 10.21c15.94-2.814 36.772-8.083 41.107-31.286 2.413-12.829-2.51-24.545-9.29-32.956-.978-1.21-2.25-2.65-3.293-3.632L18.125 69.675z"/><path fill="#ED1C24" fill-rule="nonzero" d="M12.942 126.75l-6.26 1.113L.13 90.39l6.194-1.146c10.66-1.996 14.214-3.796 15.29-4.549-.36-.818-1.174-2.258-2.576-4.058-1.956-2.552-3.977-4.909-5.51-6.545l-4.857-5.138 32.11-24.676 3.945 3.698c1.141 1.08 2.608 2.684 3.88 4.255 5.379 6.676 13.92 20.487 10.627 38.159-2.282 12.142-8.737 21.436-19.234 27.621-8.573 5.007-18.483 7.233-27.057 8.738m1.858-26.247l2.184 12.437c15.909-3.6 26.895-9.818 29.73-24.97 2.218-11.782-3.194-21.47-7.171-26.706l-12.16 9.36c.555.687 1.141 1.407 1.696 2.16 5.574 7.2 5.444 11.094 5.411 12.403-.326 8.51-7.628 12.502-19.69 15.316"/><path fill="#ED1C24" fill-rule="nonzero" d="M153.217 101.322l-3.162-18c-1.858-10.636-10.693-15.512-18.451-15.84-2.478-.098-5.02.23-6.716.524-.358.065-.62.098-.75.13l-40.064 7.135-7.465-42.544L38.89 39.37l9.356 53.54c2.315 13.157 9.29 18.72 14.735 21.077 6.194 2.683 12.225 2.029 14.507 1.603.293-.065.554-.098.717-.13l57.505-10.146c7.857-1.44 12.095 3.011 12.095 3.011l2.086-.36 4.336-.753-.978-5.661-.033-.23z"/><path fill="#FFF" fill-rule="nonzero" d="M90.786 45.914l7.073-10.09 10.13 7.1-7.074 10.09z"/><path fill="#ED1C24" fill-rule="nonzero" d="M81.913 47.456l14.371-20.5 20.58 14.427-14.37 20.5z"/><path fill="#FFF" fill-rule="nonzero" d="M80.944 60.25l25.819-9.196s5.77-2.226 10.106-.36c4.368 1.898 5.672 4.843 6.487 9.49.815 4.647 2.347 13.32 2.347 13.32s-4.466-4.745-10.4-2.749c-4.889 1.636-30.61 10.898-30.61 10.898L80.944 60.25z"/><path fill="#ED1C24" fill-rule="nonzero" d="M135.94 95.005l-14.8-17.05c-.262-.262-1.761-1.538-3.359-1.244a2.394 2.394 0 0 0-.456.131c-4.76 1.604-30.22 10.767-30.48 10.865l-7.107 2.553-5.998-34.232 30.839-10.963c.489-.197 2.119-.753 4.238-1.146 3.977-.687 7.53-.393 10.562.916 7.367 3.175 9.323 9 10.236 14.237l6.324 35.933zM88.148 64.471l1.532 8.673c8.02-2.88 20.342-7.298 23.634-8.41a15.827 15.827 0 0 1 4.304-.819l-.457-2.618c-.684-3.83-1.304-4.124-2.738-4.745-.261-.099-1.239-.426-3.325-.066-1.076.197-1.859.458-1.989.524l-.163.065-20.798 7.396z"/><path fill="#FFF" fill-rule="nonzero" d="M46.454 44.574l24.906-4.386 7.498 42.643 39.217-6.905 7.563-1.342s3.162-.687 5.933-.556c4.792.196 10.823 3.272 12.094 10.603l3.032 17.247s-3.684-4.025-10.334-3.338l-55.484 9.785-3.977.687s-18.386 4.582-22.2-17.28l-8.248-47.158z"/><path fill="#FFF" fill-rule="nonzero" d="M18.06 69.708c.945.949 1.923 2.29 5.216 6.087 1.89 2.16 4.01 5.825 4.075 9.425.032 2.88-.75 6.938-19.886 10.309l4.369 25.003c15.778-2.782 36.217-8.018 40.52-30.992 2.38-12.698-4.042-22.778-10.496-31.32-.815-1.08-2.12-2.617-3.326-3.96L18.06 69.709zM90.772 45.943l7.11-10.143 10.183 7.139-7.11 10.143zM81.4 60.119l25.363-9s6.063-2.39 10.106-.36c4.303 2.16 5.672 4.582 6.487 9.523.75 4.68 2.478 14.237 2.478 14.237s-4.01-5.728-10.563-3.666c-4.922 1.538-30.121 10.8-30.121 10.8L81.4 60.119zm-66.143-6.546s21.352-26.377 59.2-41.268c32.6-12.829 60.993-10.767 77.652-7.265 8.02 1.702 17.212 4.974 17.212 4.974S132.875-9.13 79.868 5.727c-38.5 10.767-60.145 40.908-64.611 47.846"/><path fill="#FFF" fill-rule="nonzero" d="M71.1 22.68s41.172-10.866 70.25-8.968c29.047 1.931 38.403 9.458 49.03 19.08 0 0-10.92-20.323-49.616-22.516-38.728-2.225-65.036 10.8-69.665 12.404"/><path stroke="#FFF" stroke-width="3.277" d="M74.555 124.95c.293-.065.554 0 .75.197.195.196.26.49.228.916l-.391 4.353c0 .065 0 .13-.033.196-.033.818.228 1.473.717 1.964.554.556 1.271.752 2.152.589h.032c.88-.164 1.663-.622 2.347-1.375.62-.687.978-1.44 1.109-2.29v-.197l.391-4.353c.033-.425.163-.752.391-1.014s.49-.426.815-.458c.294-.066.554 0 .75.196.196.196.26.49.228.949l-.391 4.353c-.163 1.538-.782 2.912-1.89 4.189a7.366 7.366 0 0 1-3.848 2.323l-.163.033c-1.5.164-2.673-.164-3.553-1.015-.163-.163-.293-.327-.424-.49a9.16 9.16 0 0 1-.521.654 7.366 7.366 0 0 1-3.847 2.324l-.163.032c-1.5.164-2.673-.163-3.553-1.014-.946-.884-1.337-2.095-1.206-3.633l.39-4.352c.033-.426.164-.786.425-1.048.228-.262.489-.425.815-.458.293-.065.554 0 .75.196.195.197.26.491.227.917l-.39 4.352c0 .066 0 .131-.033.197-.033.818.228 1.473.717 1.963.554.557 1.271.753 2.151.59h.033c.88-.164 1.663-.622 2.315-1.375.619-.687.978-1.44 1.108-2.29v-.197l.391-4.353c.033-.425.163-.753.391-1.014.196-.328.457-.491.783-.557zm-34.882 6.186c.294-.066.555 0 .75.196.196.196.261.49.228.916l-.39 4.353c0 .065 0 .13-.033.196-.033.818.228 1.473.717 1.964.554.556 1.271.72 2.151.589h.033c.88-.164 1.663-.622 2.347-1.375.62-.687.978-1.44 1.108-2.29v-.197l.392-4.352c.032-.426.163-.753.39-1.015.23-.262.49-.425.816-.458.293-.066.554 0 .75.196.195.197.26.491.228.95l-.391 4.352c-.163 1.538-.783 2.913-1.891 4.189a7.366 7.366 0 0 1-3.847 2.324l-.163.032c-1.5.164-2.673-.163-3.553-1.014-.163-.164-.294-.328-.424-.491a9.16 9.16 0 0 1-.522.654 7.366 7.366 0 0 1-3.846 2.324l-.163.033c-1.5.163-2.673-.164-3.554-1.015-.945-.883-1.336-2.094-1.206-3.632l.391-4.353c.033-.426.163-.786.424-1.047.228-.262.49-.426.783-.459.293-.065.554 0 .75.197.195.196.26.49.228.916l-.392 4.353c0 .065 0 .13-.032.196-.033.818.228 1.473.717 1.964.554.556 1.271.752 2.152.589h.032c.88-.164 1.663-.622 2.315-1.375.62-.687.978-1.44 1.108-2.29v-.197l.391-4.353c.033-.425.163-.752.391-1.014.229-.36.49-.524.815-.556z"/><path stroke="#FFF" stroke-width="3.277" d="M56.984 128.06c.293-.066.554 0 .75.196.195.196.26.49.228.916l-.392 4.353c0 .065 0 .13-.032.196-.033.818.228 1.473.717 1.964.554.556 1.271.72 2.152.589h.032c.88-.164 1.663-.622 2.347-1.375.62-.687.978-1.44 1.109-2.29v-.197l.39-4.353c.034-.425.164-.752.392-1.014s.49-.426.815-.458c.294-.066.554 0 .75.196.196.196.26.49.228.949l-.391 4.353c-.163 1.538-.782 2.912-1.89 4.189a7.366 7.366 0 0 1-3.848 2.323l-.163.033c-1.5.164-2.673-.164-3.553-1.015-.163-.163-.293-.327-.424-.49a9.16 9.16 0 0 1-.521.654 7.366 7.366 0 0 1-3.847 2.324l-.163.032c-1.5.164-2.673-.163-3.553-1.014-.946-.884-1.337-2.095-1.207-3.633l.392-4.352c.032-.426.163-.786.39-1.048.23-.261.49-.425.816-.458.293-.065.554 0 .75.197.195.196.26.49.228.916l-.391 4.352c0 .066 0 .131-.033.197-.033.818.228 1.473.717 1.963.554.557 1.272.753 2.152.59h.032c.88-.164 1.663-.622 2.315-1.375.62-.687.978-1.44 1.108-2.29v-.197l.392-4.353c.032-.425.163-.753.39-1.014.229-.328.49-.491.816-.557zm-26.21 6.545s-5.705 1.014-6.618 1.178c-.913.163-2.38.523-1.858 1.865.196.458 1.01.426 1.826.458.945.033 1.955.197 2.803.819.359.261.945.752 1.239 1.44.945 2.094.424 6.283-4.955 7.298-7.954 1.505-10.79-3.764-11.084-4.844-.293-1.08-1.01-5.564 4.368-7.265 2.184-.688 2.38 1.309.717 1.767-1.532.425-4.694 3.109-2.086 6.414 2.412 3.11 7.433 2.75 9.421 1.211 2.021-1.538 2.021-2.749 1.467-3.829-.554-1.08-2.445-1.113-3.26-1.113-1.304 0-4.107-1.767-1.956-4.32 1.174-1.374 2.902-1.701 4.5-1.963 2.444-.425 6.193-1.08 6.193-1.08"/><ellipse cx="79.13" cy="138.406" stroke="#FFF" stroke-width="3.277" rx="1.663" ry="1.211" transform="rotate(-35.373 79.13 138.406)"/><ellipse cx="41.308" cy="125.181" stroke="#FFF" stroke-width="3.277" rx="1.663" ry="1.211" transform="rotate(-35.381 41.308 125.18)"/><ellipse cx="45.35" cy="124.474" stroke="#FFF" stroke-width="3.277" rx="1.663" ry="1.211" transform="rotate(-35.373 45.35 124.474)"/><ellipse cx="33.973" cy="126.471" stroke="#FFF" stroke-width="3.277" rx="1.663" ry="1.211" transform="rotate(-35.386 33.973 126.471)"/><path fill="#F06DA9" fill-rule="nonzero" d="M74.555 124.95c.293-.065.554 0 .75.197.195.196.26.49.228.916l-.391 4.353c0 .065 0 .13-.033.196-.033.818.228 1.473.717 1.964.554.556 1.271.752 2.152.589h.032c.88-.164 1.663-.622 2.347-1.375.62-.687.978-1.44 1.109-2.29v-.197l.391-4.353c.033-.425.163-.752.391-1.014s.49-.426.815-.458c.294-.066.554 0 .75.196.196.196.26.49.228.949l-.391 4.353c-.163 1.538-.782 2.912-1.89 4.189a7.366 7.366 0 0 1-3.848 2.323l-.163.033c-1.5.164-2.673-.164-3.553-1.015-.163-.163-.293-.327-.424-.49a9.16 9.16 0 0 1-.521.654 7.366 7.366 0 0 1-3.847 2.324l-.163.032c-1.5.164-2.673-.163-3.553-1.014-.946-.884-1.337-2.095-1.206-3.633l.39-4.352c.033-.426.164-.786.425-1.048.228-.262.489-.425.815-.458.293-.065.554 0 .75.196.195.197.26.491.227.917l-.39 4.352c0 .066 0 .131-.033.197-.033.818.228 1.473.717 1.963.554.557 1.271.753 2.151.59h.033c.88-.164 1.663-.622 2.315-1.375.619-.687.978-1.44 1.108-2.29v-.197l.391-4.353c.033-.425.163-.753.391-1.014.196-.328.457-.491.783-.557zm-34.882 6.186c.294-.066.555 0 .75.196.196.196.261.49.228.916l-.39 4.353c0 .065 0 .13-.033.196-.033.818.228 1.473.717 1.964.554.556 1.271.72 2.151.589h.033c.88-.164 1.663-.622 2.347-1.375.62-.687.978-1.44 1.108-2.29v-.197l.392-4.352c.032-.426.163-.753.39-1.015.23-.262.49-.425.816-.458.293-.066.554 0 .75.196.195.197.26.491.228.95l-.391 4.352c-.163 1.538-.783 2.913-1.891 4.189a7.366 7.366 0 0 1-3.847 2.324l-.163.032c-1.5.164-2.673-.163-3.553-1.014-.163-.164-.294-.328-.424-.491a9.16 9.16 0 0 1-.522.654 7.366 7.366 0 0 1-3.846 2.324l-.163.033c-1.5.163-2.673-.164-3.554-1.015-.945-.883-1.336-2.094-1.206-3.632l.391-4.353c.033-.426.163-.786.424-1.047.228-.262.49-.426.783-.459.293-.065.554 0 .75.197.195.196.26.49.228.916l-.392 4.353c0 .065 0 .13-.032.196-.033.818.228 1.473.717 1.964.554.556 1.271.752 2.152.589h.032c.88-.164 1.663-.622 2.315-1.375.62-.687.978-1.44 1.108-2.29v-.197l.391-4.353c.033-.425.163-.752.391-1.014.229-.36.49-.524.815-.556z"/><path fill="#F06DA9" fill-rule="nonzero" d="M56.984 128.06c.293-.066.554 0 .75.196.195.196.26.49.228.916l-.392 4.353c0 .065 0 .13-.032.196-.033.818.228 1.473.717 1.964.554.556 1.271.72 2.152.589h.032c.88-.164 1.663-.622 2.347-1.375.62-.687.978-1.44 1.109-2.29v-.197l.39-4.353c.034-.425.164-.752.392-1.014s.49-.426.815-.458c.294-.066.554 0 .75.196.196.196.26.49.228.949l-.391 4.353c-.163 1.538-.782 2.912-1.89 4.189a7.366 7.366 0 0 1-3.848 2.323l-.163.033c-1.5.164-2.673-.164-3.553-1.015-.163-.163-.293-.327-.424-.49a9.16 9.16 0 0 1-.521.654 7.366 7.366 0 0 1-3.847 2.324l-.163.032c-1.5.164-2.673-.163-3.553-1.014-.946-.884-1.337-2.095-1.207-3.633l.392-4.352c.032-.426.163-.786.39-1.048.23-.261.49-.425.816-.458.293-.065.554 0 .75.197.195.196.26.49.228.916l-.391 4.352c0 .066 0 .131-.033.197-.033.818.228 1.473.717 1.963.554.557 1.272.753 2.152.59h.032c.88-.164 1.663-.622 2.315-1.375.62-.687.978-1.44 1.108-2.29v-.197l.392-4.353c.032-.425.163-.753.39-1.014.229-.328.49-.491.816-.557zm-26.21 6.545s-5.705 1.014-6.618 1.178c-.913.163-2.38.523-1.858 1.865.196.458 1.01.426 1.826.458.945.033 1.955.197 2.803.819.359.261.945.752 1.239 1.44.945 2.094.424 6.283-4.955 7.298-7.954 1.505-10.79-3.764-11.084-4.844-.293-1.08-1.01-5.564 4.368-7.265 2.184-.688 2.38 1.309.717 1.767-1.532.425-4.694 3.109-2.086 6.414 2.412 3.11 7.433 2.75 9.421 1.211 2.021-1.538 2.021-2.749 1.467-3.829-.554-1.08-2.445-1.113-3.26-1.113-1.304 0-4.107-1.767-1.956-4.32 1.174-1.374 2.902-1.701 4.5-1.963 2.444-.425 6.193-1.08 6.193-1.08m48.345 6.742c.75-.524 1.043-1.408.652-1.964-.391-.556-1.304-.556-2.087-.033-.75.524-1.043 1.408-.652 1.964.392.556 1.337.589 2.087.033m-37.163-15.185c-.392-.557-1.304-.557-2.087-.033-.75.523-1.043 1.407-.652 1.963.391.557 1.337.59 2.087.033.75-.523 1.043-1.407.652-1.963zm3.39 1.243c.75-.523 1.043-1.407.652-1.963-.391-.557-1.304-.557-2.086-.033-.75.523-1.044 1.407-.652 1.963.423.557 1.336.59 2.086.033m-11.377 2.03c.75-.524 1.043-1.408.652-1.964-.391-.557-1.304-.557-2.087-.033-.75.523-1.043 1.407-.652 1.963.392.557 1.337.557 2.087.033"/></g></svg>